<svg xmlns="http://www.w3.org/2000/svg" viewBox="0 0 21.5 21.5"><defs><style>.cls-1,.cls-2,.cls-3{fill:none;stroke:#000;stroke-width:1.5px;}.cls-1,.cls-3{stroke-linecap:round;}.cls-1{stroke-linejoin:round;}</style></defs><g id="Layer_2" data-name="Layer 2"><g id="Icons"><path class="cls-1" d="M8.38,14.75l1.5,1.5,3.24-3"/><line class="cls-1" x1="7.56" y1="0.75" x2="3.94" y2="4.38"/><line class="cls-1" x1="13.94" y1="0.75" x2="17.56" y2="4.38"/><path class="cls-2" d="M.75,6.6c0-1.85,1-2,2.22-2H18.53c1.23,0,2.22.15,2.22,2h0c0,2.15-1,2-2.22,2H3c-1.23,0-2.22.15-2.22-2Z"/><path class="cls-3" d="M2.25,8.75l1.41,8.64c.32,1.94,1.09,3.36,4,3.36h6c3.11,0,3.56-1.36,3.93-3.24l1.68-8.76"/></g></g></svg>