<svg xmlns="http://www.w3.org/2000/svg" viewBox="0 0 21.5 20.67"><defs><style>.cls-1{fill:none;stroke:green;stroke-linecap:round;stroke-linejoin:round;stroke-width:1.5px;}</style></defs><g id="Layer_2" data-name="Layer 2"><g id="Icons"><path class="cls-1" d="M14.26.75h-7C4.75.75,4.2,2,3.88,3.52L2.75,8.92h16l-1.13-5.4C17.3,2,16.75.75,14.26.75Z"/><path class="cls-1" d="M20.74,17.74a2,2,0,0,1-2,2.18H16.83c-1.08,0-1.23-.46-1.42-1l-.2-.6c-.28-.82-.46-1.37-1.9-1.37H8.19c-1.44,0-1.65.62-1.9,1.37l-.2.6c-.19.57-.34,1-1.42,1H2.79a2,2,0,0,1-2-2.18l.56-6.09c.14-1.5.43-2.73,3.05-2.73H17.13c2.62,0,2.91,1.23,3.05,2.73Z"/><line class="cls-1" x1="2.75" y1="5.92" x2="1.75" y2="5.92"/><line class="cls-1" x1="19.75" y1="5.92" x2="18.75" y2="5.92"/><line class="cls-1" x1="10.75" y1="0.92" x2="10.75" y2="2.92"/><line class="cls-1" x1="9.25" y1="2.92" x2="12.25" y2="2.92"/><line class="cls-1" x1="4.75" y1="12.92" x2="7.75" y2="12.92"/><line class="cls-1" x1="13.75" y1="12.92" x2="16.75" y2="12.92"/></g></g></svg>