<svg width="17" height="15" viewBox="0 0 17 15" fill="none" xmlns="http://www.w3.org/2000/svg">
<path fill-rule="evenodd" clip-rule="evenodd" d="M15.7594 0.24824C15.4285 -0.0827468 14.8918 -0.0827468 14.5609 0.24824L10.0148 4.79435H0.0404053V6.48943H0.0475415C0.231634 11.0074 3.95254 14.6136 8.51574 14.6136C13.0789 14.6136 16.7999 11.0074 16.984 6.48943H16.9911V4.79435H12.4119L15.7594 1.44683C16.0905 1.11584 16.0905 0.579219 15.7594 0.24824ZM10.3601 6.48942C10.3639 6.48942 10.3677 6.48942 10.3715 6.48942H15.2871C15.1044 10.0708 12.1426 12.9186 8.51574 12.9186C4.88886 12.9186 1.92709 10.0708 1.7444 6.48942H10.3601Z" fill="#DE350B"/>
</svg>
